<svg xmlns="http://www.w3.org/2000/svg" height="34" width="82" viewBox="0 20 1640 680"><path d="M556 241h-47c-4 0-6 3-6 5v145h-87v-145c0-4-2-5-5-5h-47c-4 0-6 2-6 5v368c0 4 2 6 5 6h48c3 0 5-2 5-6v-176h87v176c0 4 2 6 6 6h47c4 0 5-3 5-6v-368c0-3-2-5-5-5zm1066 329c-1-2-2-3-4-3-4 0-24 8-54 8-58 0-86-55-86-143 0-77 23-154 63-154 11 0 23 3 44 22 2 2 4 3 6 3s5-2 7-5l20-33c2-2 2-5 2-7 0-3-3-5-8-8-31-16-52-19-70-19-71 0-126 85-126 217 0 114 53 180 129 180 32 0 66-15 80-25 3-2 4-5 3-8l-6-26zm-323-158l91-166c2-2 1-5-2-5h-45c-13 0-17 5-22 14l-68 142c-4 8-8 14-11 16v-167c0-3-2-5-5-5h-49c-2 0-5 2-5 5v369c0 2 2 5 5 5h49c3 0 5-2 5-5v-190c2 2 4 4 5 7l86 177c5 9 11 11 21 11h48c3 0 4-3 2-5l-106-203zm-434 161h-9c-11 0-14-5-14-14v-313c0-4-2-5-5-5h-151c-4 0-6 2-6 5v27c0 92-5 210-54 299h-17c-5 0-6 2-6 6v111c0 4 3 5 5 5h36c8 0 11-6 11-11v-63h162v69c0 3 2 5 5 5h39c5 0 9-4 9-11v-105c0-4-2-6-6-6zm-82 0h-110c39-66 54-140 59-231 2-20 2-40 2-53h48v284zm236-341c-82 0-118 103-118 215 0 114 52 183 127 183 37 0 70-14 86-25 3-2 4-4 3-7l-6-26c-1-3-2-5-6-5-3 0-25 8-56 8-58 0-86-51-86-117v-18s30 4 47 4h111v-32c0-117-42-180-102-180zm-8 164c-17 0-45 3-45 3s0-11 2-23c7-64 23-97 49-97 24 0 39 33 43 92 1 12 1 26 1 26h-50z"/><path d="M271 52h-86c-85 0-157 64-157 189 0 75 35 130 97 158l-116 209c-4 7 0 12 6 12h54c5 0 8-2 9-5l105-205h38v205c0 2 2 5 5 5h47c5 0 6-2 6-6v-554c0-5-3-8-8-8zm-50 309h-32c-50 0-98-36-98-127 0-95 45-133 92-133h39v260z" fill="#f00"/></svg>
